<svg width="183" height="48" viewBox="0 0 183 48" fill="none" xmlns="http://www.w3.org/2000/svg">
<path fill-rule="evenodd" clip-rule="evenodd" d="M17.9208 11.9472C17.9208 5.349 23.2698 0 29.868 0C36.4662 0 41.8152 5.349 41.8152 11.9472C41.8152 18.5454 36.4662 23.8944 29.868 23.8944H23.8944V41.8152H17.9208V23.8944H11.9472C8.6535 23.8944 5.9736 26.574 5.9736 29.868C5.9736 33.1617 8.6535 35.8416 11.9472 35.8416H14.1873V41.8152H11.9472C5.349 41.8152 0 36.4662 0 29.868C0 23.2695 5.349 17.9208 11.9472 17.9208H29.868C33.1617 17.9208 35.8416 15.2409 35.8416 11.9472C35.8416 8.6535 33.1617 5.9736 29.868 5.9736C26.5743 5.9736 23.8944 8.6535 23.8944 11.9472V14.1873H17.9208V11.9472ZM152.211 7.03528C154.375 7.03528 156.124 8.69278 156.124 10.8567C156.124 13.0197 154.375 14.6769 152.211 14.6769C150.048 14.6769 148.299 13.0197 148.299 10.8567C148.299 8.69278 150.048 7.03528 152.211 7.03528ZM70.3332 23.4645V18.3441H62.9673V12.4392H56.994V18.3441H50.778V23.4645H56.994V31.2093C56.994 34.8615 57.6963 37.0485 59.2074 38.5599C61.263 40.6155 64.0347 41.1219 66.375 41.1219C69.177 41.1219 70.08 40.662 70.08 40.662V35.6004C70.08 35.6004 68.7582 35.829 66.5994 35.829C65.889 35.829 64.641 35.6691 63.8343 34.8627C63.1317 34.1598 62.9673 32.9982 62.9673 32.0199V23.4645H70.3332ZM86.9277 17.8833C84.4194 17.8833 82.1961 18.7626 80.8272 20.1312C80.5536 20.4051 80.406 20.5986 80.406 20.5986V18.3441H74.6547V40.662H80.628V26.6883C81.234 25.7178 83.0289 23.4069 86.469 23.4069C87.759 23.4069 88.9185 23.6358 88.9185 23.6358V18.0678C88.9185 18.0678 87.8856 17.8833 86.9277 17.8833ZM135.184 18.3441H141.484L127.764 48H121.507L126.029 38.4075H126.029L126.029 38.4072L116.042 18.3441H122.624L129.114 31.6464L135.184 18.3441ZM102.169 35.5995C98.9526 35.5995 96.2838 33.1548 96.2838 29.526C96.2838 26.0562 98.7555 23.4057 102.031 23.4057C105.343 23.4057 107.22 25.6443 107.552 26.0763V32.9379C107.222 33.3972 105.471 35.5995 102.169 35.5995ZM107.794 18.3441V20.1153C107.642 19.9887 105.068 17.8842 101.268 17.8842C95.2383 17.8842 90.2976 22.89 90.2976 29.526C90.2976 36.2031 95.3976 41.1219 101.538 41.1219C105.363 41.1219 107.574 39.1026 107.782 38.9049V40.662H113.525V18.3441H107.794ZM145.215 37.1994C145.215 34.9779 143.422 33.276 141.203 33.276C138.985 33.276 137.192 34.9779 137.192 37.1994C137.192 39.4203 138.985 41.1219 141.203 41.1219C143.422 41.1219 145.215 39.4203 145.215 37.1994ZM155.199 40.662H149.225V18.3441H155.199V40.662ZM171.081 35.6005C167.826 35.6005 165.187 33.1393 165.187 29.503C165.187 25.9264 167.826 23.4058 171.081 23.4058C174.336 23.4058 176.975 25.9264 176.975 29.503C176.975 33.1393 174.336 35.6005 171.081 35.6005ZM171.081 17.8833C164.523 17.8833 159.206 22.944 159.206 29.5029C159.206 36.0621 164.523 41.1226 171.081 41.1226C177.639 41.1226 182.956 36.0621 182.956 29.5029C182.956 22.944 177.639 17.8833 171.081 17.8833Z" fill="#0A0D36"/>
</svg>
