<svg width="150" height="150" viewBox="0 0 150 150" fill="none" xmlns="http://www.w3.org/2000/svg">
<path d="M148.264 102.083L64.3482 60.1272C63.1272 59.5229 61.6733 59.7558 60.7103 60.7125C59.7537 61.6692 59.5145 63.1357 60.1187 64.3442L102.08 148.263C102.615 149.333 103.716 150 104.893 150C105.006 150 105.12 149.994 105.239 149.981C106.548 149.836 107.631 148.892 107.952 147.615L115.882 115.88L147.616 107.943C148.893 107.628 149.844 106.546 149.982 105.237C150.121 103.928 149.441 102.675 148.264 102.083ZM112.528 110.24C111.395 110.517 110.52 111.405 110.237 112.531L103.911 137.84L69.9749 69.9837L137.835 103.909L112.528 110.24Z" fill="black"/>
<path d="M72.0582 118.863C69.0371 119.342 65.9595 119.587 62.9384 119.587C31.7021 119.587 6.29384 94.1717 6.29384 62.9406C6.29384 31.7095 31.7021 6.29406 62.9384 6.29406C94.1747 6.29406 119.583 31.7095 119.583 62.9406C119.583 66.0813 119.325 69.2221 118.815 72.281C118.526 73.993 119.69 75.6105 121.402 75.9001C123.082 76.1896 124.731 75.0252 125.021 73.3069C125.587 69.9144 125.877 66.4212 125.877 62.9406C125.877 28.2351 97.6426 0 62.9384 0C28.2342 0 0 28.2351 0 62.9406C0 97.6523 28.2342 125.881 62.9384 125.881C66.293 125.881 69.698 125.611 73.0526 125.076C74.7645 124.805 75.9352 123.194 75.6646 121.469C75.3876 119.751 73.8016 118.567 72.0582 118.863Z" fill="black"/>
<path d="M62.9384 31.4694C80.2905 31.4694 94.4076 45.587 94.4076 62.9397C94.4076 64.6769 95.8174 66.0867 97.5545 66.0867C99.2916 66.0867 100.701 64.6769 100.701 62.9397C100.701 42.1127 83.7647 25.1754 62.9384 25.1754C42.1121 25.1754 25.1754 42.1127 25.1754 62.9397C25.1754 83.773 42.1121 100.704 62.9384 100.704C64.6755 100.704 66.0853 99.2942 66.0853 97.557C66.0853 95.8199 64.6755 94.41 62.9384 94.41C45.5863 94.41 31.4692 80.2924 31.4692 62.9397C31.4692 45.587 45.5863 31.4694 62.9384 31.4694Z" fill="black"/>
</svg>
